<svg width="1440" height="250" fill="none" xmlns="http://www.w3.org/2000/svg"><path fill="#3A3054" d="M0 0h1440v250H0z"/><path d="M0 0h1440v250H0z"/><mask id="a" mask-type="alpha" maskUnits="userSpaceOnUse" x="0" y="0" width="1440" height="250"><path fill="#3A3054" d="M0 0h1440v250H0z"/><path stroke="#979797" stroke-opacity="0" stroke-width="0" d="M0 0h1440v250H0z"/></mask><g mask="url(#a)"><path d="M830-63.49C830 19.35 854.36 78.67 944.73 117c90.37 38.32 177.69 3.35 265.28 23.39 87.59 20.05 87.59 149.2 170.08 228.68 82.48 79.47 256.4 98.78 397.82 18.15 141.41-80.64 205.52-268.9 163.26-379.91-42.25-111-123.23-212.31-513.93-212.31C1036.53-205 830-146.32 830-63.49Z" fill="#4B3F6B" fill-rule="evenodd"/><path d="M944.73 117c90.37 38.32 177.69 3.35 265.28 23.39 87.59 20.05 87.59 149.2 170.08 228.68 82.48 79.47 256.4 98.78 397.82 18.15 141.41-80.64 205.52-268.9 163.26-379.91-42.25-111-123.23-212.31-513.93-212.31C1036.53-205 830-146.32 830-63.49 830 19.35 854.36 78.67 944.73 117Z"/></g><g mask="url(#a)"><path d="M-263.36 570.9c29.69 77.34 73.69 123.99 171.79 127.38 98.11 3.39 167.09-60.55 256.05-73.22 88.96-12.67 135.24 107.9 240.73 152.53 105.49 44.64 274.77.34 377.9-125.62 103.12-125.95 95.5-324.69 16.28-413.18-79.23-88.49-191.14-154.05-555.89-14.03-364.76 140.01-536.54 268.81-506.86 346.14Z" fill="#4B3F6B" fill-rule="evenodd"/><path d="M-91.57 698.28c98.11 3.39 167.09-60.55 256.05-73.22 88.96-12.67 135.24 107.9 240.73 152.53 105.49 44.64 274.77.34 377.9-125.62 103.12-125.95 95.5-324.69 16.28-413.18-79.23-88.49-191.14-154.05-555.89-14.03-364.76 140.01-536.54 268.81-506.86 346.14 29.69 77.34 73.69 123.99 171.79 127.38Z"/></g><g mask="url(#a)"><path d="M-514-377.49c0 82.84 24.36 142.16 114.73 180.49 90.37 38.32 177.68 3.35 265.27 23.4C-46.41-153.56-46.41-24.41 36.08 55.07c82.49 79.47 256.41 98.78 397.82 18.15 141.42-80.64 205.52-268.9 163.27-379.91C554.91-417.69 473.94-519 83.23-519-307.48-519-514-460.32-514-377.49Z" fill="#4B3F6B" fill-rule="evenodd"/><path d="M-399.27-197c90.37 38.32 177.68 3.35 265.27 23.4C-46.41-153.56-46.41-24.41 36.08 55.07c82.49 79.47 256.41 98.78 397.82 18.15 141.42-80.64 205.52-268.9 163.27-379.91C554.91-417.69 473.94-519 83.23-519-307.48-519-514-460.32-514-377.49c0 82.84 24.36 142.16 114.73 180.49Z"/></g></svg>