<svg width="24" height="24" fill="none" xmlns="http://www.w3.org/2000/svg"><path d="M12 0C5.37 0 0 5.37 0 12c0 5.08 3.16 9.42 7.62 11.17-.1-.95-.2-2.41.04-3.44.22-.94 1.41-5.97 1.41-5.97s-.36-.72-.36-1.78c0-1.67.97-2.91 2.17-2.91 1.03 0 1.52.77 1.52 1.69 0 1.03-.65 2.57-.99 3.99-.29 1.2.6 2.17 1.77 2.17 2.14 0 3.78-2.25 3.78-5.49 0-2.88-2.07-4.89-5.02-4.89-3.41 0-5.41 2.56-5.41 5.21 0 1.03.39 2.14.89 2.74.1.12.11.22.08.34l-.33 1.36c-.05.22-.17.27-.4.17-1.5-.7-2.44-2.89-2.44-4.65 0-3.79 2.75-7.27 7.93-7.27 4.16 0 7.4 2.97 7.4 6.94 0 4.13-2.61 7.46-6.23 7.46-1.21 0-2.36-.63-2.75-1.38l-.75 2.85c-.27 1.05-1 2.35-1.49 3.15 1.13.35 2.32.54 3.56.54 6.62 0 12-5.38 12-12 0-6.63-5.38-12-12-12Z" fill="#FFF"/></svg>