<svg width="1110.000000" height="168.000000" viewBox="0 0 1110 168" fill="none" xmlns="http://www.w3.org/2000/svg" xmlns:xlink="http://www.w3.org/1999/xlink">
	<desc>
			Created with Pixso.
	</desc>
	<defs/>
	<rect id="Mask" rx="10.000000" width="1110.000000" height="168.000000" fill="#3A3054" fill-opacity="1.000000"/>
	<rect id="Mask" rx="10.000000" width="1110.000000" height="168.000000" stroke="#979797" stroke-opacity="0" stroke-width="0.000000"/>
	<mask id="mask0_883" mask-type="alpha" maskUnits="userSpaceOnUse" x="0.000000" y="0.000000" width="1110.000000" height="168.000000">
		<rect id="Mask" rx="10.000000" width="1110.000000" height="168.000000" fill="#3A3054" fill-opacity="1.000000"/>
		<rect id="Mask" rx="10.000000" width="1110.000000" height="168.000000" stroke="#979797" stroke-opacity="0" stroke-width="0.000000"/>
	</mask>
	<g mask="url(#mask0_883)">
		<path id="Path 2" d="M647 -93.93C647 -41.21 662.5 -3.44 720 20.95C777.5 45.34 833.05 23.08 888.78 35.84C944.51 48.6 944.51 130.8 997 181.39C1049.48 231.98 1160.14 244.27 1250.12 192.94C1340.1 141.62 1380.88 21.79 1354 -48.86C1327.12 -119.52 1275.59 -184 1027 -184C778.4 -184 647 -146.65 647 -93.93Z" fill="#4B3F6B" fill-opacity="1.000000" fill-rule="evenodd"/>
		<path id="Path 2" d="M720 20.95C777.5 45.34 833.05 23.08 888.78 35.84C944.51 48.6 944.51 130.8 997 181.39C1049.48 231.98 1160.14 244.27 1250.12 192.94C1340.1 141.62 1380.88 21.79 1354 -48.86C1327.12 -119.52 1275.59 -184 1027 -184C778.4 -184 647 -146.65 647 -93.93C647 -41.21 662.5 -3.44 720 20.95Z" stroke="#979797" stroke-opacity="0" stroke-width="0.000000"/>
	</g>
	<g mask="url(#mask0_883)">
		<path id="Path 2 Copy" d="M-134 119.07C-134 171.8 -118.5 209.56 -61 233.95C-3.5 258.34 52.05 236.08 107.78 248.84C163.51 261.6 163.51 343.8 216 394.39C268.48 444.98 379.14 457.27 469.11 405.94C559.09 354.62 599.88 234.79 573 164.14C546.11 93.48 494.59 29 246 29C-2.6 29 -134 66.35 -134 119.07Z" fill="#4B3F6B" fill-opacity="1.000000" fill-rule="evenodd"/>
		<path id="Path 2 Copy" d="M-61 233.95C-3.5 258.34 52.05 236.08 107.78 248.84C163.51 261.6 163.51 343.8 216 394.39C268.48 444.98 379.14 457.27 469.11 405.94C559.09 354.62 599.88 234.79 573 164.14C546.11 93.48 494.59 29 246 29C-2.6 29 -134 66.35 -134 119.07C-134 171.8 -118.5 209.56 -61 233.95Z" stroke="#979797" stroke-opacity="0" stroke-width="0.000000"/>
	</g>
</svg>
