<svg width="120.043" height="32.674" fill="none" xmlns="http://www.w3.org/2000/svg"><path d="M16.184 7.752c-.068-.09-.306-.26-.714-.51s-.918-.51-1.53-.782a14.81 14.81 0 0 0-2.006-.714 8.006 8.006 0 0 0-2.176-.306c-1.995 0-2.992.669-2.992 2.006 0 .408.108.748.323 1.02.215.272.533.516.952.731.42.215.946.414 1.58.595l1.406.393.805.22c1.156.316 2.199.662 3.128 1.036.93.374 1.717.839 2.363 1.394a5.647 5.647 0 0 1 1.496 2.023c.351.793.527 1.745.527 2.856 0 1.36-.255 2.51-.765 3.451a6.45 6.45 0 0 1-2.023 2.278c-.839.578-1.802.997-2.89 1.258-1.088.26-2.21.391-3.366.391a19.686 19.686 0 0 1-5.44-.799c-.884-.26-1.74-.572-2.567-.935A14.35 14.35 0 0 1 0 22.1l2.448-4.862c.09.113.385.329.884.646s1.116.635 1.853.952c.737.317 1.558.6 2.465.85.907.25 1.825.374 2.754.374 1.972 0 2.958-.6 2.958-1.802 0-.453-.147-.827-.442-1.122-.295-.295-.703-.561-1.224-.799a12.434 12.434 0 0 0-1.504-.56l-1.702-.495-.976-.288c-1.11-.34-2.074-.708-2.89-1.105-.816-.397-1.49-.856-2.023-1.377a5.003 5.003 0 0 1-1.19-1.802c-.26-.68-.391-1.473-.391-2.38 0-1.27.238-2.391.714-3.366a7.266 7.266 0 0 1 1.938-2.465A8.436 8.436 0 0 1 6.511.986c1.077-.34 2.216-.51 3.417-.51.839 0 1.666.08 2.482.238.816.159 1.598.363 2.346.612.748.25 1.445.533 2.091.85.646.317 1.241.635 1.785.952l-2.448 4.624ZM39.608 24.82h-5.44V14.79c0-1.156-.227-2.006-.68-2.55-.453-.544-1.077-.816-1.87-.816-.317 0-.663.074-1.037.221a4.177 4.177 0 0 0-1.088.646 5.818 5.818 0 0 0-.969 1.003 4.402 4.402 0 0 0-.68 1.292V24.82h-5.44V0h5.44v9.962a6.786 6.786 0 0 1 2.601-2.465c1.077-.578 2.261-.867 3.553-.867 1.202 0 2.17.21 2.907.629.737.42 1.303.952 1.7 1.598.397.646.663 1.371.8 2.176.135.805.203 1.592.203 2.363V24.82Zm12.34.34c-1.518 0-2.873-.25-4.063-.748-1.19-.499-2.193-1.173-3.009-2.023a8.541 8.541 0 0 1-1.853-2.958 9.97 9.97 0 0 1-.629-3.519c0-1.224.21-2.397.63-3.52a8.54 8.54 0 0 1 1.852-2.957c.816-.85 1.82-1.53 3.01-2.04 1.19-.51 2.544-.765 4.062-.765 1.519 0 2.868.255 4.046.765 1.179.51 2.176 1.19 2.992 2.04a8.755 8.755 0 0 1 1.87 2.958 9.736 9.736 0 0 1 .646 3.519c0 1.224-.21 2.397-.629 3.519a8.543 8.543 0 0 1-1.853 2.958c-.816.85-1.819 1.524-3.009 2.023-1.19.499-2.544.748-4.063.748Zm-2.856-5.865c-.748-.85-1.122-1.978-1.122-3.383 0-.68.102-1.309.306-1.887a4.568 4.568 0 0 1 .833-1.479 3.701 3.701 0 0 1 2.84-1.292c1.133 0 2.073.425 2.821 1.275.748.85 1.122 1.978 1.122 3.383 0 .68-.102 1.309-.306 1.887a4.568 4.568 0 0 1-.833 1.479 3.751 3.751 0 0 1-1.24.952 3.59 3.59 0 0 1-1.565.34c-1.156 0-2.108-.425-2.856-1.275Zm26.654-7.667c-1.314.023-2.504.238-3.57.646-1.065.408-1.836 1.02-2.312 1.836v10.71h-5.44V6.97h4.998v3.604c.612-1.201 1.4-2.142 2.363-2.822.964-.68 1.99-1.031 3.077-1.054h.544c.114 0 .227.011.34.034v4.896Zm14.074 12.24c-.748.317-1.603.612-2.567.884a10.65 10.65 0 0 1-2.907.408c-.68 0-1.32-.085-1.92-.255a4.285 4.285 0 0 1-1.582-.816c-.453-.374-.81-.867-1.07-1.479-.261-.612-.392-1.349-.392-2.21v-9.316h-2.278V6.97h2.278V1.292h5.44V6.97h3.638v4.114h-3.638v7.446c0 .59.148 1.014.442 1.275.295.26.67.391 1.123.391a4.16 4.16 0 0 0 1.257-.204c.431-.136.805-.283 1.122-.442l1.054 4.318ZM92.097 0h5.44v18.462c0 1.36.578 2.04 1.733 2.04.273 0 .573-.04.902-.119.328-.08.629-.198.901-.357l.713 4.08c-.679.317-1.461.567-2.345.748-.885.181-1.712.272-2.482.272-1.565 0-2.766-.408-3.604-1.224-.84-.816-1.258-1.995-1.258-3.536V0Zm11.456 27.506c.453.159.878.272 1.275.34.396.068.753.102 1.071.102.657 0 1.167-.227 1.53-.68.362-.453.691-1.27.986-2.448l-6.8-17.85h5.61l4.148 13.192 3.57-13.192h5.1l-6.8 20.74a7.106 7.106 0 0 1-2.55 3.587c-1.224.918-2.675 1.377-4.352 1.377-.454 0-.913-.04-1.377-.119a7.51 7.51 0 0 1-1.411-.391v-4.658Z" clip-rule="evenodd" fill="#34313D" fill-rule="evenodd"/></svg>