<svg width="24" height="19.504" fill="none" xmlns="http://www.w3.org/2000/svg"><path d="M24 2.3c-.89.4-1.84.66-2.83.78 1.01-.61 1.8-1.57 2.16-2.73-.95.57-2 .98-3.13 1.2A4.873 4.873 0 0 0 16.61 0c-3.18 0-5.51 2.96-4.8 6.04C7.72 5.84 4.1 3.88 1.67.9a4.928 4.928 0 0 0 1.52 6.57c-.81-.03-1.57-.25-2.23-.62-.05 2.29 1.58 4.42 3.95 4.89-.69.19-1.45.24-2.23.09a4.949 4.949 0 0 0 4.61 3.42A9.92 9.92 0 0 1 0 17.29c2.17 1.39 4.76 2.21 7.54 2.21 9.14 0 14.31-7.72 14-14.65.96-.69 1.8-1.56 2.46-2.55Z" fill="#FFF"/></svg>